PathFileType	4	(X/Y/Z)	DARI_DATA/Captury_Subj7_bilateral_squat01.trc
DataRate	CameraRate	NumFrames	NumMarkers	Units	OrigDataRate	OrigDataStartFrame	OrigNumFrames
60	60	4	47	mm	60.00239944458008	1	357
Frame#	Time		LeftUpLeg_		RightUpLeg_		LeftLeg_		RightLeg_		LeftFoot_		RightFoot_		LeftToeBase_		RightToeBase_		Knee_Lateral_r		Knee_Lateral_l		Ankle_Lateral_r		Ankle_Lateral_l		LeftArm_		LeftForeArm_		LeftHand_		LeftHandEE		RightArm_		RightForeArm_		RightHand_		RightHandEE		Spine_		Spine1_		Spine2_		Spine3_		Spine4_		Spine5_		Spine_x		Spine_y		Spine_z		RASI		LASI		RIPS		LIPS		RTHI		LTHI		RTIB		LTIB		RTOE		LTOE		RHEE		LHEE		RHipAngles		LHipAngles		RKneeAngles		LKneeAngles		RAnkleAngles		LAnkleAngles
			X1	Y1	Z1	X2	Y2	Z2	X3	Y3	Z3	X4	Y4	Z4	X5	Y5	Z5	X6	Y6	Z6	X7	Y7	Z7	X8	Y8	Z8	X9	Y9	Z9	X10	Y10	Z10	X11	Y11	Z11	X12	Y12	Z12	X13	Y13	Z13	X14	Y14	Z14	X15	Y15	Z15	X16	Y16	Z16	X17	Y17	Z17	X18	Y18	Z18	X19	Y19	Z19	X20	Y20	Z20	X21	Y21	Z21	X22	Y22	Z22	X23	Y23	Z23	X24	Y24	Z24	X25	Y25	Z25	X26	Y26	Z26	X27	Y27	Z27	X28	Y28	Z28	X29	Y29	Z29	X30	Y30	Z30	X31	Y31	Z31	X32	Y32	Z32	X33	Y33	Z33	X34	Y34	Z34	X35	Y35	Z35	X36	Y36	Z36	X37	Y37	Z37	X38	Y38	Z38	X39	Y39	Z39	X40	Y40	Z40	X41	Y41	Z41	X42	Y42	Z42	X43	Y43	Z43	X44	Y44	Z44	X45	Y45	Z45	X46	Y46	Z46	X47	Y47	Z47

1	0.00000	-87.95986	-86.18758	25.94410	87.95986	-86.18758	25.94410	-109.75505	-513.25543	19.26809	109.75505	-513.25543	19.26809	-131.05936	-905.96155	53.04082	131.05936	-905.96155	53.04082	-131.05936	-954.19513	-75.06760	131.05936	-954.19513	-75.06760	158.84331	-513.25543	19.26809	-158.84331	-513.25543	19.26809	180.14761	-905.96155	72.67612	-180.14761	-905.96155	72.67612	-134.58411	457.60446	12.08382	-436.45276	443.82666	33.63087	-693.76953	426.04462	51.99787	-787.67737	419.55505	58.70047	134.58411	457.60446	12.08382	436.45276	443.82666	33.63087	693.76953	426.04462	51.99787	787.67737	419.55505	58.70047	0.00000	9.84280	45.30942	0.00000	119.94009	25.64919	0.00000	203.39774	34.59460	0.00000	303.27170	64.28154	0.00000	451.11658	49.14317	-0.00000	0.00000	-0.00000	49.15057	9.84280	45.30942	0.00000	58.99337	45.30942	0.00000	9.84280	94.45999	147.45171	-19.64754	-72.65195	-147.45171	-19.64754	-72.65195	39.32045	-19.64754	74.79976	-39.32045	-19.64754	74.79976	166.60077	-282.78986	25.94410	-166.60077	-282.78986	25.94410	158.84331	-689.97314	19.26809	-158.84331	-748.87909	19.26809	131.05936	-954.19513	-152.24133	-131.05936	-954.19513	-152.24133	131.05936	-974.68512	102.12907	-131.05936	-974.68512	102.12907	-0.00000	-0.00000	-0.00000	-0.00000	0.00000	0.00000	0.00000	-0.00000	-0.00000	0.00000	0.00000	0.00000	-0.00000	-0.00000	-0.00000	-0.00000	0.00000	0.00000
2	0.01667	-128.52887	894.86090	22.82329	47.36428	897.77734	23.73970	-221.34229	477.71506	6.04167	132.17784	478.69138	14.78407	-287.80292	89.31689	29.33092	193.48215	90.00656	46.06440	-302.70401	30.59209	-93.41917	204.52687	31.42780	-77.16215	179.66777	485.52768	25.15852	-268.69604	485.26382	16.54383	237.03659	97.05515	75.19394	-331.15686	96.83793	58.64084	-176.43288	1408.85303	9.66751	-328.71698	1380.39893	-250.67593	-366.31232	1403.42578	-505.47351	-374.71149	1405.51929	-599.44580	98.95444	1402.42981	-1.67522	218.06293	1375.73999	-278.94693	232.98213	1419.48254	-533.36676	220.55333	1427.58264	-626.56348	-42.25351	993.64429	34.32109	-43.16867	1094.93958	15.04207	-43.48543	1168.88550	28.27323	-43.99935	1256.01758	67.90356	-41.67303	1395.68494	73.42262	-0.00000	0.00000	-0.00000	6.88963	994.45911	34.57713	-43.04332	1042.60657	30.09660	-42.57860	997.86401	83.28909	106.43002	956.58398	-79.89932	-188.42883	951.69507	-81.43554	-2.66016	967.45056	66.44141	-81.28919	966.14691	66.03175	152.14662	714.26038	37.12010	-236.80750	713.16467	32.77623	201.21545	308.92627	22.02532	-300.52698	250.43762	7.75227	212.11183	10.90170	-151.16844	-312.48114	11.20666	-167.47588	182.83194	25.72807	99.79924	-276.87531	25.02200	82.99037	-7.46854	7.59796	11.66281	-9.17638	10.68996	12.07276	-0.34977	-1.42480	-0.43434	-0.31342	-1.76621	-0.30018	6.42733	-5.65739	-9.87495	7.90024	-4.54726	-9.54831
3	0.03333	-128.51393	895.28131	23.68084	47.37742	898.42413	23.98059	-220.78519	478.05899	5.84601	131.21896	479.15900	14.29114	-288.46512	89.89911	29.59164	193.96539	90.74863	46.11600	-302.86456	30.65057	-92.96653	203.40013	31.44843	-76.89907	178.88626	485.91791	23.87256	-268.15274	485.52139	16.34760	237.91753	98.06106	74.57544	-331.74323	97.64268	58.95564	-176.59526	1409.45251	7.24683	-329.68719	1382.07458	-252.73792	-366.89401	1405.70850	-507.53693	-372.76779	1407.44861	-601.70795	98.74757	1402.45813	-2.88247	217.82838	1377.54626	-280.33145	232.81506	1422.31604	-534.56860	220.39691	1428.91333	-627.88513	-42.32591	994.14856	35.11266	-43.40682	1095.40491	15.81241	-43.71902	1169.34167	28.90655	-44.12329	1256.57654	68.23456	-41.69695	1396.23291	73.11597	-0.00000	0.00000	-0.00000	6.81674	995.02661	35.19641	-43.19390	1043.11987	31.01000	-42.48264	998.24908	84.09161	105.99899	957.55865	-79.72400	-188.85690	952.29034	-80.22649	-2.58503	967.92853	67.02863	-81.21327	966.52362	66.89462	152.00938	714.72241	35.92508	-236.56319	713.42267	33.14786	200.78809	309.59528	21.15373	-300.70148	251.04053	7.88567	209.98631	10.55611	-150.89850	-312.30060	11.05090	-167.01109	184.24875	26.77218	100.38556	-278.01761	25.82182	83.60583	-7.20883	7.37634	10.92972	-9.16950	10.67327	11.84761	-0.43492	-1.14453	-0.35027	-0.46136	-1.46692	-0.22956	6.56245	-5.65289	-9.84854	8.06480	-4.96214	-9.49071
4	0.05000	-128.63005	895.95978	24.20911	47.26045	899.09491	23.54538	-220.42221	478.64090	6.16166	130.44746	479.69202	14.18014	-288.94647	90.61685	29.70439	194.22398	91.46021	46.13578	-302.96878	30.90694	-92.67348	202.19717	31.44750	-76.63696	178.25674	486.42587	23.04494	-267.78528	486.03799	16.72945	238.52762	98.97905	73.98999	-332.12625	98.51243	59.17250	-176.54419	1409.54773	4.45059	-330.32587	1384.20837	-255.33371	-367.42560	1408.82288	-510.05548	-370.59439	1409.62378	-604.36896	98.32378	1402.41089	-3.86506	216.85638	1380.06506	-281.76700	232.96469	1424.96912	-535.91187	219.92688	1431.54004	-629.14575	-42.37515	994.79749	35.38892	-43.57671	1096.04883	16.13752	-43.87238	1169.98132	29.18195	-44.22019	1257.27368	68.35271	-41.85801	1396.93042	72.87264	-0.00000	0.00000	-0.00000	6.76726	995.67340	35.20348	-43.26324	1043.77808	31.40198	-42.26141	998.78711	84.37717	105.31195	958.46185	-80.34703	-189.54251	953.20624	-79.23439	-2.46012	968.50366	67.02568	-81.08797	967.10217	67.32239	151.83313	715.30652	34.64621	-236.44841	713.96381	33.66978	200.37021	310.25439	20.54603	-300.86084	251.80681	8.18075	207.88321	10.18796	-150.60646	-312.13904	11.15269	-166.71037	185.31131	27.79044	100.90175	-278.92868	26.73214	84.02724	-6.86189	7.28550	10.41332	-9.06203	10.58162	11.61244	-0.35030	-0.99640	-0.26566	-0.41994	-1.26732	-0.16881	6.76065	-5.64869	-9.80383	8.29939	-5.37474	-9.36225
